<?xml version="1.0" encoding="utf-8"?>
<!-- Generator: Adobe Illustrator 21.1.0, SVG Export Plug-In . SVG Version: 6.00 Build 0)  -->
<svg version="1.1" id="Layer_1" xmlns="http://www.w3.org/2000/svg" xmlns:xlink="http://www.w3.org/1999/xlink" x="0px" y="0px"
	 viewBox="0 0 512 512" style="enable-background:new 0 0 512 512;" xml:space="preserve">
<style type="text/css">
	.st0{fill:#003A70;}
	.st1{fill:#FFFFFF;}
</style>
<g>
	<path class="st0" d="M512,448c0,35.2-28.8,64-64,64H64c-35.2,0-64-28.8-64-64V64C0,28.8,28.8,0,64,0h384c35.2,0,64,28.8,64,64V448z
		"/>
</g>
<g>
	<path class="st1" d="M90,458.4V186.1c0-67.6,54.8-122.4,122.4-122.4H422v196.1c0,62.3-50.5,112.7-112.7,112.7h-56.7
		c-39.2,0-71-31.8-71-71v0h118.8c27.3,0,49.4-22.1,49.4-49.4V135.3H219.7c-30.8,0-55.8,25-55.8,55.8v193.4
		C163.8,425.3,130.8,458.4,90,458.4L90,458.4z"/>
	<path class="st1" d="M301.1,177.9v56.7c0,12.2-9.9,22.1-22.1,22.1h-68.1V200c0-12.2,9.9-22.1,22.1-22.1H301.1z"/>
</g>
</svg>
